<?xml version="1.0" encoding="iso-8859-1"?>
<!-- Generator: Adobe Illustrator 21.1.0, SVG Export Plug-In . SVG Version: 6.00 Build 0)  -->
<svg version="1.1" id="Layer_1" xmlns="http://www.w3.org/2000/svg" xmlns:xlink="http://www.w3.org/1999/xlink" x="0px" y="0px"
	 viewBox="0 0 78.667 78.67" style="enable-background:new 0 0 78.667 78.67;" xml:space="preserve">
<g>
	<path style="fill:#6f7781;" d="M55.182,24.972c-1.219-1.218-3.191-1.217-4.408,0L39.335,36.411L27.9,24.972
		c-1.218-1.217-3.19-1.218-4.408,0c-1.217,1.217-1.217,3.19,0,4.408l11.436,11.439L23.492,52.253c-1.217,1.218-1.217,3.19,0,4.408
		c0.608,0.608,1.406,0.912,2.204,0.912c0.797,0,1.595-0.304,2.204-0.912l11.435-11.435l11.431,11.434
		c0.608,0.609,1.406,0.913,2.204,0.913s1.595-0.304,2.203-0.912c1.218-1.217,1.218-3.19,0.001-4.407L43.742,40.819l11.44-11.44
		C56.399,28.163,56.399,26.189,55.182,24.972z"/>
</g>
</svg>
